<svg width="166" height="32" viewBox="0 0 166 32" fill="none" xmlns="http://www.w3.org/2000/svg">
<g clip-path="url(#clip0_1_388)">
<g clip-path="url(#clip1_1_388)">
<path d="M8.38487 25.6638C9.90584 25.6638 11.1389 24.4309 11.1389 22.9099C11.1389 21.3889 9.90584 20.1559 8.38487 20.1559C6.8639 20.1559 5.63092 21.3889 5.63092 22.9099C5.63092 24.4309 6.8639 25.6638 8.38487 25.6638Z" stroke="#0AAD0A" stroke-width="1.32414" stroke-miterlimit="10" stroke-linecap="round"/>
<path d="M7.20047 9.48588H23.8596" stroke="#0AAD0A" stroke-width="1.32414" stroke-miterlimit="10" stroke-linecap="round"/>
<path d="M8.65889 12.8176H23.1314" stroke="#0AAD0A" stroke-width="1.32414" stroke-miterlimit="10" stroke-linecap="round"/>
<path d="M7.90762 20.1548H18.6975C19.8792 20.1548 20.9319 19.4041 21.316 18.2858L25.763 5.34803C26.1472 4.22979 27.1988 3.47908 28.3816 3.47908H31.6166" stroke="#0AAD0A" stroke-width="1.32414" stroke-miterlimit="10" stroke-linecap="round"/>
<path d="M8.385 23.3075C8.60466 23.3075 8.78274 23.1294 8.78274 22.9098C8.78274 22.6901 8.60466 22.5121 8.385 22.5121C8.16533 22.5121 7.98726 22.6901 7.98726 22.9098C7.98726 23.1294 8.16533 23.3075 8.385 23.3075Z" stroke="#0AAD0A" stroke-width="1.10345" stroke-miterlimit="10" stroke-linecap="round"/>
<path d="M18.3965 25.6638C19.9174 25.6638 21.1503 24.4309 21.1503 22.9099C21.1503 21.3889 19.9174 20.1559 18.3965 20.1559C16.8754 20.1559 15.6425 21.3889 15.6425 22.9099C15.6425 24.4309 16.8754 25.6638 18.3965 25.6638Z" stroke="#0AAD0A" stroke-width="1.32414" stroke-miterlimit="10" stroke-linecap="round"/>
<path d="M18.3966 23.3075C18.6161 23.3075 18.7943 23.1294 18.7943 22.9097C18.7943 22.6901 18.6161 22.512 18.3966 22.512C18.1769 22.512 17.9988 22.6901 17.9988 22.9097C17.9988 23.1294 18.1769 23.3075 18.3966 23.3075Z" stroke="#0AAD0A" stroke-width="1.10345" stroke-miterlimit="10" stroke-linecap="round"/>
<path d="M21.8702 16.673H7.37785C6.89265 16.673 6.46682 16.3366 6.33354 15.8471L3.87529 6.84262C3.75242 6.39361 4.07415 5.94569 4.51978 5.94569H23.0988" stroke="#0AAD0A" stroke-width="1.32414" stroke-miterlimit="10" stroke-linecap="round"/>
<path d="M1.03162 27.3827C1.03162 27.3827 11.6226 23.7989 25.915 27.3827" stroke="#0AAD0A" stroke-width="1.32414" stroke-miterlimit="10" stroke-linecap="round"/>
<path d="M37.7045 25.8065V6.54621H50.4569V9.90358H41.7766V14.4929H49.6105V17.8503H41.7766V25.8065H37.7045Z" fill="#21313C"/>
<path d="M52.0934 25.8065V11.3612H55.9774V13.8816H56.1279C56.3912 12.9851 56.8332 12.3079 57.4539 11.8503C58.0746 11.3863 58.7893 11.1544 59.5981 11.1544C59.7987 11.1544 60.015 11.1669 60.247 11.1919C60.4789 11.217 60.6827 11.2515 60.8583 11.2954V14.8503C60.6702 14.7939 60.41 14.7437 60.0777 14.6998C59.7454 14.6559 59.4413 14.634 59.1655 14.634C58.5762 14.634 58.0495 14.7625 57.5855 15.0196C57.1279 15.2704 56.7643 15.6215 56.4946 16.0729C56.2313 16.5243 56.0997 17.0446 56.0997 17.634V25.8065H52.0934Z" fill="#21313C"/>
<path d="M68.0458 26.0886C66.5599 26.0886 65.2809 25.7876 64.2088 25.1858C63.143 24.5775 62.3216 23.7186 61.7448 22.6089C61.1681 21.493 60.8797 20.1732 60.8797 18.6497C60.8797 17.1638 61.1681 15.8597 61.7448 14.7374C62.3216 13.6152 63.1336 12.7405 64.1806 12.1137C65.2338 11.4867 66.4689 11.1732 67.8859 11.1732C68.8389 11.1732 69.726 11.3268 70.5474 11.634C71.3749 11.935 72.096 12.3895 72.7104 12.9976C73.3311 13.6058 73.8139 14.3707 74.1586 15.2923C74.5035 16.2077 74.6759 17.2798 74.6759 18.5086V19.6089H62.4784V17.1262H70.9048C70.9048 16.5494 70.7793 16.0384 70.5285 15.5932C70.2778 15.1481 69.9298 14.8001 69.4847 14.5494C69.0458 14.2923 68.5348 14.1637 67.9518 14.1637C67.3436 14.1637 66.8044 14.3048 66.3342 14.5869C65.8702 14.8629 65.5066 15.2358 65.2432 15.7061C64.98 16.17 64.8452 16.6873 64.8389 17.2578V19.6183C64.8389 20.333 64.9705 20.9506 65.2338 21.471C65.5035 21.9913 65.8828 22.3926 66.3718 22.6748C66.8609 22.9569 67.4408 23.0979 68.1116 23.0979C68.5568 23.0979 68.9643 23.0352 69.3342 22.9098C69.7041 22.7844 70.0207 22.5963 70.2841 22.3456C70.5474 22.0948 70.748 21.7876 70.8859 21.424L74.5913 21.6684C74.4032 22.5588 74.0175 23.3362 73.4345 24.0007C72.8577 24.6591 72.1117 25.1732 71.1963 25.5431C70.2872 25.9067 69.237 26.0886 68.0458 26.0886Z" fill="#21313C"/>
<path d="M88.5147 15.4804L84.847 15.7061C84.7842 15.3926 84.6495 15.1105 84.4425 14.8597C84.2356 14.6026 83.9629 14.3989 83.6244 14.2484C83.2921 14.0917 82.8939 14.0133 82.43 14.0133C81.8093 14.0133 81.2858 14.1449 80.8594 14.4083C80.4331 14.6653 80.22 15.0102 80.22 15.4428C80.22 15.7876 80.3579 16.0792 80.6338 16.3174C80.9096 16.5557 81.383 16.7468 82.0539 16.891L84.6683 17.4177C86.0727 17.7061 87.1197 18.17 87.8093 18.8095C88.499 19.4491 88.8438 20.2891 88.8438 21.33C88.8438 22.2766 88.5648 23.1073 88.0068 23.822C87.4551 24.5368 86.6964 25.0948 85.731 25.4961C84.7717 25.891 83.6651 26.0886 82.4112 26.0886C80.499 26.0886 78.9755 25.6904 77.8406 24.8941C76.7121 24.0917 76.0507 23.0008 75.8563 21.6215L79.7967 21.4145C79.9159 21.9976 80.2043 22.4427 80.662 22.7499C81.1197 23.0509 81.7059 23.2013 82.4206 23.2013C83.1228 23.2013 83.687 23.0666 84.1134 22.797C84.5459 22.5211 84.7654 22.1669 84.7717 21.7343C84.7654 21.3706 84.6118 21.0728 84.3109 20.8409C84.0099 20.6026 83.546 20.4208 82.919 20.2954L80.4174 19.797C79.0068 19.5148 77.9566 19.0259 77.267 18.3299C76.5836 17.634 76.2419 16.7468 76.2419 15.6684C76.2419 14.7405 76.4927 13.9412 76.9943 13.2704C77.5021 12.5995 78.2137 12.0823 79.1291 11.7186C80.0507 11.3549 81.1291 11.1732 82.3642 11.1732C84.1886 11.1732 85.6243 11.5587 86.6714 12.3299C87.7247 13.1011 88.3391 14.1512 88.5147 15.4804Z" fill="#21313C"/>
<path d="M94.5782 17.4553V25.8065H90.5721V6.54621H94.4654V13.9099H94.6347C94.9607 13.0571 95.4874 12.3895 96.2147 11.9067C96.9419 11.4177 97.8541 11.1732 98.9513 11.1732C99.9545 11.1732 100.829 11.3926 101.575 11.8314C102.328 12.2641 102.911 12.8879 103.324 13.7029C103.744 14.5117 103.951 15.4804 103.945 16.6089V25.8065H99.9388V17.3237C99.9451 16.4333 99.7194 15.7406 99.2617 15.2453C98.8103 14.7499 98.177 14.5023 97.362 14.5023C96.8165 14.5023 96.3338 14.6183 95.9137 14.8503C95.4999 15.0822 95.1739 15.4208 94.9356 15.8659C94.7037 16.3048 94.5845 16.8346 94.5782 17.4553Z" fill="#21313C"/>
<path d="M123.373 13.2892H119.253C119.178 12.7562 119.025 12.2828 118.793 11.8691C118.56 11.4491 118.263 11.0917 117.899 10.797C117.535 10.5023 117.115 10.2766 116.638 10.1199C116.169 9.96314 115.658 9.88477 115.105 9.88477C114.109 9.88477 113.241 10.1324 112.501 10.6277C111.761 11.1167 111.187 11.8314 110.78 12.7719C110.373 13.7061 110.168 14.8409 110.168 16.1763C110.168 17.5493 110.373 18.703 110.78 19.6372C111.194 20.5713 111.77 21.2766 112.51 21.7531C113.25 22.2296 114.106 22.4678 115.078 22.4678C115.624 22.4678 116.127 22.3958 116.592 22.2516C117.062 22.1074 117.479 21.8973 117.843 21.6215C118.206 21.3394 118.507 20.9976 118.745 20.5963C118.99 20.1951 119.159 19.7374 119.253 19.2233L123.373 19.2421C123.265 20.1261 122.999 20.9788 122.573 21.8002C122.153 22.6152 121.586 23.3456 120.871 23.9913C120.162 24.6308 119.316 25.1387 118.331 25.5148C117.354 25.8848 116.247 26.0697 115.011 26.0697C113.294 26.0697 111.758 25.681 110.403 24.9035C109.055 24.1261 107.99 23.0008 107.207 21.5274C106.429 20.0541 106.04 18.2703 106.04 16.1763C106.04 14.076 106.435 12.2891 107.225 10.8158C108.015 9.34245 109.087 8.22019 110.442 7.44903C111.796 6.67161 113.319 6.28289 115.011 6.28289C116.127 6.28289 117.163 6.43963 118.115 6.7531C119.074 7.06659 119.924 7.52426 120.664 8.12615C121.403 8.72175 122.006 9.45217 122.47 10.3174C122.94 11.1826 123.241 12.1732 123.373 13.2892Z" fill="#21313C"/>
<path d="M129.542 26.0792C128.62 26.0792 127.799 25.9193 127.078 25.5995C126.357 25.2735 125.786 24.7939 125.366 24.1606C124.952 23.5211 124.746 22.7248 124.746 21.7719C124.746 20.9694 124.893 20.2954 125.187 19.75C125.483 19.2045 125.883 18.7656 126.391 18.4333C126.899 18.1011 127.476 17.8503 128.122 17.681C128.774 17.5117 129.457 17.3926 130.172 17.3237C131.013 17.2358 131.69 17.1544 132.204 17.0791C132.718 16.9976 133.09 16.8784 133.323 16.7218C133.554 16.5651 133.671 16.333 133.671 16.0258V15.9694C133.671 15.3738 133.483 14.913 133.106 14.5869C132.736 14.261 132.21 14.098 131.527 14.098C130.805 14.098 130.231 14.2579 129.805 14.5775C129.378 14.891 129.097 15.286 128.958 15.7625L125.254 15.4616C125.441 14.5838 125.811 13.8252 126.363 13.1858C126.914 12.54 127.627 12.0446 128.498 11.6998C129.375 11.3487 130.391 11.1732 131.545 11.1732C132.347 11.1732 133.115 11.2672 133.849 11.4553C134.589 11.6434 135.244 11.935 135.815 12.3299C136.392 12.7249 136.846 13.2327 137.178 13.8534C137.511 14.4678 137.677 15.2045 137.677 16.0635V25.8064H133.877V23.8033H133.765C133.532 24.2547 133.223 24.6528 132.833 24.9976C132.444 25.3362 131.978 25.6027 131.432 25.797C130.887 25.9851 130.257 26.0792 129.542 26.0792ZM130.689 23.3143C131.279 23.3143 131.799 23.1982 132.25 22.9663C132.701 22.7281 133.056 22.4083 133.313 22.007C133.57 21.6058 133.698 21.1513 133.698 20.6434V19.1105C133.574 19.1919 133.401 19.2672 133.181 19.3362C132.969 19.3989 132.727 19.4585 132.458 19.5148C132.187 19.565 131.918 19.6121 131.648 19.6559C131.379 19.6935 131.134 19.728 130.914 19.7594C130.445 19.8283 130.034 19.9381 129.683 20.0886C129.332 20.239 129.059 20.4427 128.864 20.6998C128.67 20.9506 128.573 21.2641 128.573 21.6403C128.573 22.1857 128.77 22.6026 129.166 22.891C129.567 23.1732 130.075 23.3143 130.689 23.3143Z" fill="#21313C"/>
<path d="M139.99 25.8065V11.3612H143.874V13.8816H144.025C144.288 12.9851 144.73 12.3079 145.351 11.8503C145.972 11.3863 146.686 11.1544 147.495 11.1544C147.696 11.1544 147.912 11.1669 148.144 11.1919C148.376 11.217 148.579 11.2515 148.755 11.2954V14.8503C148.567 14.7939 148.307 14.7437 147.975 14.6998C147.642 14.6559 147.339 14.634 147.062 14.634C146.473 14.634 145.946 14.7625 145.483 15.0196C145.024 15.2704 144.661 15.6215 144.392 16.0729C144.128 16.5243 143.996 17.0446 143.996 17.634V25.8065H139.99Z" fill="#21313C"/>
<path d="M158.44 11.3612V14.3707H149.741V11.3612H158.44ZM151.716 7.90044H155.722V21.3675C155.722 21.7374 155.778 22.0258 155.891 22.2328C156.004 22.4333 156.16 22.5745 156.362 22.6559C156.568 22.7374 156.807 22.7782 157.076 22.7782C157.264 22.7782 157.452 22.7625 157.641 22.7311C157.829 22.6936 157.972 22.6653 158.073 22.6465L158.703 25.6278C158.503 25.6904 158.22 25.7625 157.856 25.844C157.493 25.9318 157.051 25.985 156.531 26.0039C155.565 26.0415 154.718 25.913 153.992 25.6183C153.27 25.3237 152.71 24.866 152.308 24.2453C151.906 23.6246 151.709 22.8409 151.716 21.8942V7.90044Z" fill="#21313C"/>
</g>
</g>
<defs>
<clipPath id="clip0_1_388">
<rect width="165.16" height="32" fill="white"/>
</clipPath>
<clipPath id="clip1_1_388">
<rect width="165.16" height="32" fill="white"/>
</clipPath>
</defs>
</svg>
